<svg id="Layer_1" data-name="Layer 1" xmlns="http://www.w3.org/2000/svg" viewBox="0 0 382.38 1010.54"><defs><style>.cls-1{fill:#fff;}</style></defs>
<title>Left</title>
<path class="cls-1" d="M211,1010.19a153.23,153.23,0,0,0,15.74-.84H195.63A151.93,151.93,0,0,0,211,1010.19Z" transform="translate(0 0)"/>
<path d="M364.26,759.82c-5-26.36-12.86-52-20.44-76.88-4.93-16.16-10-32.87-14.28-49.56-1.93-7.57-4.5-15-5.89-22.46H56.34c4,39.25,2.11,79.19.14,120.42-1,22-2.12,44.69-2.22,67.16-.27,63.6,8,152.89,82.84,194a152.1,152.1,0,0,0,58.07,18h31a152.82,152.82,0,0,0,86.65-38.4C377.7,913.7,376.6,824.49,364.26,759.82Z" transform="translate(0 0)"/>
<path d="M1.93,308.16c-2.66,34-2.59,66.19.35,96,4.26,43.28,17.86,80.77,35.19,125.29,4,13.81,8.45,28.25,12.48,41.09a342.5,342.5,0,0,1,6.51,40.79H324c-7.8-41.4-7.21-80.4,1.86-118.55,6.46-27.25,15.88-54.21,25-80.29,6.88-19.7,14-40.07,19.85-60.54a333.92,333.92,0,0,0,9.39-43.79Z" transform="translate(0 0)"/>
<path d="M380.15,308.16a292.35,292.35,0,0,0-2.82-90.07c-16.46-88-42.54-174.16-120.56-208.76-.21-.09-.42-.18-.64-.25s-.52-.25-.81-.37C200.46-12.56,133.87,6.08,93.33,54,36.52,121.28,14.43,212.3,5.87,276.83c-1.23,9.3-2.2,18.46-3,27.52l-.37,3.81Z" transform="translate(0 0)"/>
</svg>