<svg id="Layer_1" data-name="Layer 1" xmlns="http://www.w3.org/2000/svg" viewBox="0 0 387.21 1023.36"><defs><style>.cls-1{fill:#fff;}</style></defs><title>Right</title>
<path class="cls-1" d="M173.54,1023.05a154.31,154.31,0,0,1-15.94-.86h31.51A152.79,152.79,0,0,1,173.54,1023.05Z" transform="translate(-0.05 0)"/>
<path d="M70,984.47a154.76,154.76,0,0,0,87.76,38.89h31.49A154,154,0,0,0,248,1005.14c75.77-41.63,84.17-132,83.9-196.44-.1-22.76-1.2-45.77-2.25-68-2-41.78-3.88-82.18.14-121.94H59.09c-1.41,7.5-4,15-6,22.75-4.3,16.89-9.47,33.82-14.46,50.17C31,716.82,23,742.79,17.92,769.53,5.45,834.94,4.34,925.38,70,984.47Z" transform="translate(-0.05 0)"/>
<path d="M385.3,312.08c2.7,34.42,2.62,67-.36,97.27-4.31,43.79-18.08,81.76-35.63,126.84-4.07,14-8.56,28.61-12.65,41.62a349.17,349.17,0,0,0-6.58,41.29H59.1c7.9-42,7.3-81.45-1.84-120-6.54-27.6-16.09-54.91-25.32-81.32-7-19.95-14.18-40.58-20.1-61.31A338.25,338.25,0,0,1,2.3,312.08Z" transform="translate(-0.05 0)"/>
<path d="M2.3,312.08a296,296,0,0,1,2.85-91.21C21.82,131.74,48.19,44.44,127.2,9.45c.21-.09.42-.18.64-.25a8.58,8.58,0,0,1,.82-.37c55.56-21.54,123-2.67,164.06,45.9C350.3,122.82,372.62,215,381.3,280.36c1.24,9.43,2.23,18.69,3.08,27.88l.37,3.85Z" transform="translate(-0.05 0)"/></svg>